
		<svg xmlns="http://www.w3.org/2000/svg" xmlns:xlink="http://www.w3.org/1999/xlink" version="1.1" width="3129.589632829374" height="1049.6760259179266">
			<rect fill="#fff" width="3129.589632829374" height="1049.6760259179266"/>
			<g transform="scale(6.479481641468682) translate(10, 10)">
				<defs xmlns="http://www.w3.org/2000/svg" id="SvgjsDefs1055" /><g xmlns="http://www.w3.org/2000/svg" id="SvgjsG1056" fill="#ffffff" transform="matrix(1, 0, 0, 1, 0, 0)" featureKey="root" /><g xmlns="http://www.w3.org/2000/svg" id="SvgjsG1057" fill="#318159" transform="matrix(1, 0, 0, 1, 20, 20)" featureKey="container1"><rect width="130" height="102" /></g><g xmlns="http://www.w3.org/2000/svg" id="SvgjsG1058" fill="#ffffff" transform="matrix(0.407213, 0, 0, 0.407213, 50, 55.0814)" featureKey="symbol1"><path d="M 170.8 14.4 c -0.2 0 -4.5 -1.2 -10.4 -1.2 c -7.2 0 -13.3 1.6 -18 4.8 c -10.9 7.3 -13.5 22.1 -13.9 24.5 c -2.5 2.5 -4.8 5.2 -7 8.1 c -1.2 -2.5 -2.2 -5 -3.1 -7.6 c 0.9 -1.1 2.8 -3.5 4.5 -6.9 c 2.7 -5.3 3.8 -10.5 3.3 -15.3 c -1.4 -11.9 -12.9 -20 -13.4 -20.3 l -1 -0.7 L 111 0.9 c -0.1 0.1 -2.6 3 -4.9 7.4 c -2.8 5.4 -3.9 10.6 -3.3 15.5 c 1.3 10.9 11.3 18.6 13 19.9 c 1 3.2 2.4 6.3 4 9.5 c -4.6 6.6 -8.1 13.8 -10.4 21.5 H 54.5 c 0.4 -1.7 0.8 -3.2 1.2 -4.6 c 0.1 -0.4 0.2 -0.8 0.4 -1.1 c 1 -3.2 2.3 -6.3 3.8 -9.2 c 1.4 -0.1 4.6 -0.5 8.2 -1.7 c 5.8 -1.8 10.3 -4.7 13.4 -8.6 c 7.6 -9.5 5.2 -23.7 5.1 -24.3 L 86.4 24 L 85.2 24 c -0.4 0 -4.2 0.3 -8.9 1.8 c -5.9 1.9 -10.5 4.8 -13.6 8.7 c -7 8.8 -5.4 21.6 -5.1 23.7 c -1.5 2.9 -2.8 5.9 -3.8 9.1 c 0 0 -0.1 0.3 -0.5 1.5 c -0.6 1.9 -1.1 3.8 -1.6 5.9 H 11.5 c 0.5 -1.7 1.2 -3.2 1.9 -4.7 c 1 -0.1 2.9 -0.4 5.2 -1.2 c 3.8 -1.3 6.8 -3.3 8.8 -5.9 c 4.9 -6.4 3.1 -15.8 3.1 -16.2 l -0.2 -1.1 L 29 45.6 c -0.5 0 -2.9 0.3 -5.8 1.3 c -3.9 1.3 -6.9 3.3 -8.9 6 c -4.4 5.7 -3.4 13.7 -3.1 15.7 c -0.9 1.9 -1.7 3.9 -2.3 5.9 c 0 0 0 0.1 0 0.1 H 0 v 2.7 h 148.1 v -2.7 H 112 c 2.2 -7.1 5.5 -13.7 9.7 -19.9 c 0.3 -0.4 0.5 -0.8 0.8 -1.1 c 2.3 -3.2 4.9 -6.3 7.6 -9.1 c 1.6 0.4 5.2 1 9.8 1 c 7.1 0 13 -1.6 17.8 -4.8 c 11.7 -7.9 14 -24.3 14.1 -25 l 0.1 -1.1 L 170.8 14.4 Z M 139.9 43.1 c -3.2 0 -6.1 -0.4 -7.8 -0.7 c 2.7 -3 8.9 -9.1 17.4 -14 c 3.9 -2.3 8.2 -4.2 12.8 -5.8 l 0.5 -0.2 l -0.8 -2.4 l -0.5 0.2 c -4.7 1.6 -9.2 3.6 -13.2 6 c -7.3 4.2 -13 9.3 -16.3 12.7 c 1.4 -5 4.7 -13.8 11.9 -18.6 c 4.3 -2.9 9.9 -4.4 16.6 -4.4 c 3.8 0 7 0.5 8.6 0.8 c -0.7 3.5 -3.7 15.9 -12.8 22.1 C 151.9 41.6 146.4 43.1 139.9 43.1 Z M 114.3 10.6 l 0.1 -0.7 l -2.6 -0.4 l -0.1 0.7 c -0.6 4.2 -0.8 8.3 -0.6 12.2 c 0.3 6.6 1.8 12.5 2.9 16.2 c -6.8 -6.5 -8.3 -12.8 -8.6 -15.2 c -0.5 -4.3 0.5 -9 3.1 -13.9 c 1.4 -2.7 2.9 -4.8 3.8 -5.9 c 9.6 7.6 11.1 16.1 11.3 17.7 c 0.5 4.3 -0.5 8.9 -3 13.8 c -1.1 2.2 -2.4 4 -3.2 5.2 c -1.2 -3.2 -3.2 -10 -3.6 -17.9 C 113.5 18.6 113.7 14.6 114.3 10.6 Z M 71.6 41.4 c 2.6 -2.8 5.6 -5.5 8.9 -8 l 0.6 -0.4 l -1.6 -2.1 l -0.6 0.4 c -3.5 2.6 -6.6 5.4 -9.3 8.3 c -4.6 5 -7.8 10.3 -9.7 13.8 c -0.2 -9.7 3.3 -15.2 4.9 -17.2 c 2.8 -3.5 6.9 -6.1 12.3 -7.8 c 3 -0.9 5.6 -1.3 7 -1.5 c 1.4 12.5 -3.7 19.6 -4.7 20.9 c -2.7 3.4 -6.8 6 -12.1 7.7 c -2.4 0.8 -4.6 1.2 -6.1 1.4 C 62.7 53.7 66.1 47.3 71.6 41.4 Z M 20.7 57.8 c 1.6 -1.9 3.5 -3.6 5.6 -5.3 L 27 52 l -1.6 -2 l -0.7 0.5 c -2.2 1.7 -4.2 3.6 -6 5.6 c -2.4 2.7 -4.1 5.5 -5.4 7.7 c 0.1 -2.8 0.7 -6.5 2.8 -9.4 c 1.7 -2.2 4.3 -4 7.7 -5.1 c 1.6 -0.6 3.1 -0.8 4 -1 c 0.3 2.5 0.5 8.7 -2.7 12.9 c -1.7 2.2 -4.2 3.9 -7.6 5 c -1.1 0.4 -2.2 0.7 -3.1 0.8 C 15.7 64.9 17.6 61.3 20.7 57.8 Z" /></g><g xmlns="http://www.w3.org/2000/svg" id="SvgjsG1059" fill="#318159" transform="matrix(3.99467, 0, 0, 3.99467, 164.008, 3.92944)" featureKey="text1"><path d="M 6.58 21.3 l 3.46 0 q 0 0.8 -0.1 1.37 t -0.64 0.98 t -1.42 0.41 l -4.52 0 q -0.86 0 -1.36 -0.5 t -0.5 -1.36 l 0 -11.86 l 0.14 -0.14 l 1.18 0 q 1.88 0 1.88 2.04 l 0 9.14 q 0.88 -0.08 1.88 -0.08 Z M 18.84 14.9 q 1.44 1.44 1.44 4.12 q 0 1.2 -0.31 2.18 t -0.9 1.67 t -1.45 1.06 t -1.98 0.37 t -1.97 -0.38 t -1.44 -1.07 t -0.89 -1.67 t -0.3 -2.16 q 0 -1.2 0.3 -2.17 t 0.88 -1.67 t 1.44 -1.08 t 1.98 -0.38 q 1.98 0 3.2 1.18 Z M 15.66 16.06 q -0.44 0 -0.71 0.21 t -0.43 0.57 t -0.22 0.83 t -0.06 1.01 q 0 0.84 0.05 1.45 t 0.2 1.02 t 0.42 0.61 t 0.71 0.2 q 0.88 0 1.16 -0.77 t 0.28 -2.19 q 0 -1.44 -0.28 -2.19 t -1.12 -0.75 Z M 27.06 18.44 l 0 -0.26 q 0 -1.12 -0.24 -1.63 t -0.9 -0.51 q -0.7 0 -0.98 0.69 t -0.28 2.29 q 0 0.8 0.11 1.34 t 0.32 0.87 t 0.53 0.48 t 0.76 0.15 q 0.46 0 1.02 -0.2 t 1.2 -0.64 q 0.18 0.1 0.37 0.29 t 0.35 0.43 t 0.28 0.51 t 0.18 0.51 q -0.66 0.7 -1.72 1.12 t -2.16 0.42 q -2.14 0 -3.28 -1.4 t -1.14 -3.98 q 0 -1.32 0.37 -2.3 t 0.98 -1.62 t 1.4 -0.96 t 1.65 -0.32 q 0.88 0 1.61 0.24 t 1.26 0.68 t 0.82 1.05 t 0.29 1.35 q 0 0.84 -0.49 1.18 t -1.21 0.34 q -0.6 0 -1.1 -0.12 Z M 40.06 22.56 q -0.1 0.42 -0.38 0.9 t -0.58 0.7 q -1.4 -0.04 -2.16 -1.06 q -1.3 1.2 -2.82 1.2 q -0.78 0 -1.36 -0.25 t -0.98 -0.67 t -0.6 -0.97 t -0.2 -1.15 q 0 -0.86 0.31 -1.51 t 0.85 -1.08 t 1.26 -0.65 t 1.54 -0.22 q 0.46 0 0.81 0.01 t 0.61 0.03 l 0 -0.38 q 0 -1.26 -1.3 -1.26 q -0.84 0 -2.94 0.64 q -0.6 -0.7 -0.76 -2.18 q 0.48 -0.18 1.07 -0.34 t 1.21 -0.28 t 1.22 -0.19 t 1.08 -0.07 q 0.7 0 1.35 0.2 t 1.14 0.61 t 0.78 1.06 t 0.29 1.55 l 0 4.06 q 0 0.92 0.56 1.3 Z M 34.02 21.06 q 0 0.94 1.08 0.94 q 0.56 0 1.26 -0.58 l 0 -1.6 q -0.4 -0.02 -0.67 -0.03 t -0.41 -0.01 q -1.26 0 -1.26 1.28 Z M 45.74 21.72 l 0.54 0 q 0.24 0.66 0.24 1.32 t -0.06 0.86 q -1.2 0.2 -2.14 0.2 q -1.36 0 -1.93 -0.67 t -0.57 -2.11 l 0 -11.9 l 0.12 -0.14 l 1.22 0 q 0.94 0 1.32 0.42 t 0.38 1.46 l 0 9.62 q 0 0.94 0.88 0.94 Z M 55.78 20.28 q 0.54 1.56 2.18 1.56 q 0.82 0 1.33 -0.41 t 0.8 -1.04 t 0.39 -1.41 t 0.1 -1.54 q 0 -0.7 -0.05 -1.56 t -0.29 -1.61 t -0.76 -1.26 t -1.52 -0.51 q -0.96 0 -1.47 0.49 t -0.76 1.21 t -0.31 1.53 t -0.06 1.43 q 0 0.92 0.09 1.64 t 0.33 1.48 Z M 54.16 23.04 q -2.14 -1.78 -2.14 -5.86 q 0 -1.76 0.41 -3.09 t 1.18 -2.23 t 1.87 -1.36 t 2.48 -0.46 t 2.49 0.46 t 1.88 1.37 t 1.18 2.24 t 0.41 3.07 t -0.41 3.07 t -1.18 2.23 t -1.88 1.36 t -2.49 0.46 q -2.28 0 -3.8 -1.26 Z M 71.34 12.98 l 0.02 1.48 l 0 9.54 q -0.68 0.12 -1.62 0.12 t -1.58 -0.12 l 0 -11.02 l -1.28 0.02 l -2.06 0 q -0.12 -0.58 -0.12 -1.33 t 0.12 -1.33 l 9.9 0 q 0.16 0.52 0.16 1.26 t -0.4 1.07 t -1.28 0.33 l -0.58 0 l -1.26 -0.02 l -0.02 0 Z" /></g>
			</g>
		</svg>
	